:SAMPLES-PER-SECOND 30
:FULLY-SPECIFIED
:DEGREES
308
root  -31.2412 35.9629 -1.34568 -177.837 -58.8806 -176.778
RightUpLeg  -18.0346 -19.3297 -0.574434
RightLeg  28.4512 -7.24911 -3.33846
RightFoot  -0.605828 -0.00211387 0.292769
RightToes  -14.747 -0.0541514 -0.133304
Spine  -2.69624 0.38944 -0.0137577
Spine1  -5.4231 1.12638 0.317422
HEad  -66.6695 -34.426 13.2936
LeftShoulder1  -1.94126e-019 -3.10601e-018 -2.51263e-017
LeftArm  -59.1109 -33.1163 -4.63517
LeftForeArm  103.038 -80.6448 -85.3807
LeftHand  -1.118 -1.942 17.8121
RightShoulder  -4.96962e-017 0 -2.36833e-017
RightArm  -76.468 30.2715 -20.4975
RightForeArm  46.4601 38.5649 6.01457
RightHand  -0.348332 0.790643 -6.64738
LeftUpLeg  -12.4976 10.8669 4.704
LeftLeg  24.4025 6.93915 2.61314
LeftFoot  12.0983 -0.168695 1.75332
LeftToes  -34.9097 1.70063e-006 7.6642e-008
309
root  -30.7581 35.0679 -1.72736 -177.037 -54.6533 -178.501
RightUpLeg  -17.6878 -16.6749 -3.09447
RightLeg  35.6195 -7.34813 -4.57261
RightFoot  2.67583 0.0176256 -0.193156
RightToes  -15.7607 -0.0591082 -0.141894
Spine  -2.47765 0.348211 -0.415104
Spine1  -5.02182 0.996815 -0.471526
HEad  -66.7309 -32.3539 13.7637
LeftShoulder1  -1.94126e-019 -3.10601e-018 -2.51263e-017
LeftArm  -63.2135 -34.2017 -3.06782
LeftForeArm  65.9758 -78.2508 -54.4743
LeftHand  -0.936217 -1.11912 16.7964
RightShoulder  -4.96962e-017 0 -2.36833e-017
RightArm  -77.6166 29.8965 -22.0488
RightForeArm  61.1757 37.7437 5.07834
RightHand  -0.56761 5.21534 -6.51026
LeftUpLeg  -11.6586 10.1431 5.98892
LeftLeg  27.0227 4.55864 1.96024
LeftFoot  6.27483 -0.0305252 0.71842
LeftToes  -41.6465 1.70063e-006 7.6642e-008
310
root  -30.1671 33.9419 -2.21852 -176.514 -49.904 179.966
RightUpLeg  -16.7876 -14.872 -5.04375
RightLeg  39.5536 -6.85993 -4.9571
RightFoot  2.02562 0.0114912 -0.0963589
RightToes  -46.2108 -0.2699 -0.347451
Spine  -2.24152 0.325868 -0.826704
Spine1  -4.59637 0.859919 -1.22792
HEad  -68.3696 -30.5669 15.6913
LeftShoulder1  -1.94126e-019 -3.10601e-018 -2.51263e-017
LeftArm  -65.0629 -31.8626 -1.92081
LeftForeArm  62.6403 -78.2597 -56.7039
LeftHand  -0.959791 0.115141 21.0952
RightShoulder  -4.96962e-017 0 -2.36833e-017
RightArm  -82.5839 28.58 -19.3306
RightForeArm  64.9253 47.5043 7.71861
RightHand  -0.632584 4.65082 -7.59117
LeftUpLeg  -11.9978 13.9192 7.02405
LeftLeg  31.9603 3.56674 1.9119
LeftFoot  -0.720856 -0.00033231 0.108653
LeftToes  -46.2838 1.70063e-006 7.6642e-008
311
root  -29.3923 33.042 -2.85622 -176.863 -45.0533 178.909
RightUpLeg  -16.2784 -15.7951 -5.09836
RightLeg  40.0333 -1.14322 -0.865444
RightFoot  -8.65945 -0.0115785 0.400188
RightToes  -38.013 -0.202808 -0.303625
Spine  -2.00688 0.2046 -1.27247
Spine1  -4.15922 0.529367 -2.02037
HEad  -68.5454 -29.5488 17.2883
LeftShoulder1  -1.94126e-019 -3.10601e-018 -2.51263e-017
LeftArm  -63.5384 -27.3555 -2.27675
LeftForeArm  98.6453 -80.363 -88.1765
LeftHand  -0.98821 1.02756 26.0947
RightShoulder  -4.96962e-017 0 -2.36833e-017
RightArm  -87.1061 27.2614 -12.7399
RightForeArm  55.4866 62.1077 15.7017
RightHand  -0.503164 1.25507 -8.92559
LeftUpLeg  -11.994 21.3643 8.9479
LeftLeg  36.8569 2.11928 1.37904
LeftFoot  -5.16951 -0.0104989 -0.0710594
LeftToes  -45.3839 1.70063e-006 7.6642e-008
312
root  -28.5622 32.6351 -3.44767 -177.22 -40.185 178.075
RightUpLeg  -17.9151 -14.0716 -3.61649
RightLeg  42.8442 -0.623337 -0.537574
RightFoot  -13.1717 -0.0185055 0.387439
RightToes  -29.2741 -0.138954 -0.246889
Spine  -1.79793 -0.160402 -1.98701
Spine1  -3.74582 -0.242086 -3.39574
HEad  -68.5999 -28.5754 19.4465
LeftShoulder1  -1.94126e-019 -3.10601e-018 -2.51263e-017
LeftArm  -60.1271 -20.5628 -2.57675
LeftForeArm  152.704 -75.6221 -139.359
LeftHand  -1.22448 0.17525 27.0336
RightShoulder  -4.96962e-017 0 -2.36833e-017
RightArm  -88.2839 24.7167 -4.06327
RightForeArm  57.8267 75.7455 39.7231
RightHand  -0.143746 -3.9995 -10.8344
LeftUpLeg  -11.4865 24.8035 10.8819
LeftLeg  40.2023 2.56052 1.88819
LeftFoot  -4.35464 -0.0091312 -0.0786602
LeftToes  -47.8141 1.70063e-006 7.6642e-008
313
root  -27.7288 32.7403 -4.04958 -177.828 -34.9108 177.638
RightUpLeg  -18.7326 -9.35878 -2.10565
RightLeg  44.0806 -0.424673 -0.394072
RightFoot  -12.415 -0.0244394 0.321909
RightToes  -27.6884 -0.128331 -0.235583
Spine  -1.62386 -0.455114 -2.62561
Spine1  -3.40018 -0.819753 -4.67817
HEad  -69.9537 -27.272 20.9339
LeftShoulder1  -1.94126e-019 -3.10601e-018 -2.51263e-017
LeftArm  -53.8363 -13.2519 -2.47134
LeftForeArm  176.018 -66.0861 -158.494
LeftHand  -1.53016 -0.815102 28.349
RightShoulder  -4.96962e-017 0 -2.36833e-017
RightArm  -86.1447 21.1251 1.88448
RightForeArm  98.9638 80.0986 94.944
RightHand  0.0974609 -6.08656 -18.3741
LeftUpLeg  -11.0143 22.8861 12.0882
LeftLeg  42.8873 6.16653 5.00063
LeftFoot  2.00875 -0.00522464 0.459565
LeftToes  -54.4885 1.70063e-006 7.6642e-008
